# xmcd CD database file
#
# Track frame offsets:
#	150
#	10857
#	22675
#	35947
#	46550
#	56917
#	66377
#	78117
#	90265
#	101210
#	113867
#	126125
#	145190
#	161367
#	172977
#	189037
#	202655
#	220665
#
# Disc length: 3167 seconds
#
# Revision: 0
# Processed by: cddbd v1.5PL3 Copyright (c) Steve Scherf et al.
# Submitted via: CDex 1.51
#
DISCID=dc0c5d12
DTITLE=Various Artist - Mambo
DYEAR=1998
DGENRE=Salsa
TTITLE0=Perez Prado - Mambo Jambo
TTITLE1=Edmundo Ros - El Manisero
TTITLE2=Tito Puente - Ran Kan Kan
TTITLE3=Xavier Cugat - Papa Loves Mambo
TTITLE4=Edmundo Ros - Mambo Nr. 5
TTITLE5=Perez Prado - Mambo Nr. 8
TTITLE6=Chico O'Farill - Descarga N. 1000
TTITLE7=Miguelito Valdez - Negra Leono
TTITLE8=Caltjader - Soul Sauce
TTITLE9=Willie Bobo - Spanish Grease
TTITLE10=Gisella Coso e Marco Guerzoni - Tu Vuo' Fa' L'Americano
TTITLE11=Sergio Caputo - Italiani, Mambo
TTITLE12=Mink Deville - Demasiado Corazon (Too Much Heart)
TTITLE13=Serge Gainsbourg - Mambo Miam Miam
TTITLE14=Vinicio Copossela - ... E Allora Mambo
TTITLE15=Miguelito Valdez - El Limpiabotas
TTITLE16=Mangu - Calle Luna, Calle Solo (Feat. Johnny Pacheco)
TTITLE17=David Byrne Loco De Amor
EXTD=YEAR: 1998
EXTT0=
EXTT1=
EXTT2=
EXTT3=
EXTT4=
EXTT5=
EXTT6=
EXTT7=
EXTT8=
EXTT9=
EXTT10=
EXTT11=
EXTT12=
EXTT13=
EXTT14=
EXTT15=
EXTT16=
EXTT17=
PLAYORDER=
